<?xml version="1.0" standalone="no"?>
<!DOCTYPE svg PUBLIC "-//W3C//DTD SVG 20010904//EN"
 "http://www.w3.org/TR/2001/REC-SVG-20010904/DTD/svg10.dtd">
<svg version="1.0" xmlns="http://www.w3.org/2000/svg"
 width="920.000000pt" height="512.000000pt" viewBox="0 0 920.000000 512.000000"
 preserveAspectRatio="xMidYMid meet">

<g transform="translate(0.000000,512.000000) scale(0.100000,-0.100000)"
fill="#000000" stroke="none">
<path d="M2540 4791 c-69 -21 -121 -65 -156 -131 -18 -34 -19 -107 -22 -2085
-2 -1883 -1 -2054 14 -2094 21 -55 66 -106 118 -134 l41 -22 2065 0 2065 0 41
22 c52 28 97 79 118 134 15 40 16 211 14 2094 -3 1978 -4 2051 -22 2085 -26
49 -64 88 -111 113 l-40 22 -2050 2 c-1127 1 -2061 -2 -2075 -6z m3338 -952
l-3 -481 -578 -181 -578 -180 578 -217 578 -217 3 -481 2 -481 -107 -35 c-60
-19 -630 -197 -1268 -396 -638 -200 -1166 -365 -1173 -367 -10 -4 -12 93 -10
477 l3 482 465 145 c656 204 694 217 684 220 -5 2 -265 100 -579 217 l-570
214 0 482 0 482 1270 398 c699 219 1273 398 1278 399 4 1 6 -215 5 -480z"/>
</g>
</svg>
